<?xml version="1.0" encoding="UTF-8"?>
<svg id="Layer_1" data-name="Layer 1" xmlns="http://www.w3.org/2000/svg" viewBox="0 0 1920.30726 280.91126">
  <defs>
    <style>
      .cls-1 {
        fill: #FFFFFF;
      }
    </style>
  </defs>
  <path class="cls-1" d="M324.25588,231.09739c-22.31285,16.71446-35.74225,26.66379-40.30839,29.84798-19.37059,12.90487-33.88621,19.37412-43.52284,19.37412-13.05282,0-19.56914-7.58556-19.56914-22.78695,0-27.64897,24.57574-69.38301,73.74757-125.26938,15.95776-18.22418,52.19428-55.49296,108.70269-111.74246l1.52989-3.80623-.75654-.75654c-11.16315,2.39739-30.09343,15.66203-56.83792,39.73006-32.93449,29.65296-76.65587,78.67667-131.13003,147.10477-40.93043,51.28997-67.67492,76.96858-80.22001,76.96858-7.84783,0-11.77174-5.51769-11.77174-16.54971,0-43.83554,53.85211-116.04296,161.55297-216.64918,10.26203-9.26003,20.96453-19.63638,32.11423-31.16267l-.95156-.59178c-21.03178,2.79079-53.65373,27.31946-97.88587,73.55238-37.87418,41.96605-75.83225,83.89511-113.84076,125.82753-41.30702,44.46094-69.56458,66.72336-84.76597,66.72336-5.82687,0-10.67224-1.74172-14.54572-5.25542-3.86003-3.48008-5.79677-8.07647-5.79677-13.75556,0-8.37573,2.16874-15.59815,6.46925-21.674,4.81159-6.82902,11.21359-10.27548,19.19255-10.27548,9.12906,0,13.69167,4.33413,13.69167,12.93513,0,3.54733-1.36177,6.96352-4.08867,10.27884-2.72354,3.2817-5.92454,4.92591-9.603,4.92591-4.05505,0-7.66626-.95156-10.837-2.85804h-.75318c-3.92391,1.37858-5.89428,4.16937-5.89428,8.40599,0,6.9299,4.93936,10.40997,14.8248,10.40997,11.52629,0,37.62856-23.15009,78.31353-69.4469,65.2439-74.2753,103.629-117.22653,115.1721-128.88395C262.47525,29.42095,297.70642,6.27087,322.15439,6.27087c2.79079,0,5.82703.36314,9.1289,1.11632l1.90312,1.54334v.75654c-2.03761,3.41283-7.22579,10.01321-15.59815,19.76752-6.7147,7.48469-16.53289,18.8126-29.45458,34.01735-5.07049,6.20698-30.09343,39.27277-75.07891,99.19737-9.48868,12.44422-23.42564,31.26018-41.79793,56.44452-4.69727,5.84384-11.67423,14.64323-20.91746,26.43178-9.11209,12.15169-13.67486,20.58794-13.67486,25.28521,0,1.77198.88431,2.65965,2.65965,2.65965,5.94135,0,27.87778-22.95171,65.75163-68.79123,51.19246-61.83108,88.13172-104.41917,110.80435-127.73065,44.60889-45.87315,77.92013-68.79123,99.97089-68.79123,1.64068,0,2.79079.62204,3.42964,1.90312v1.11632c-1.27771,2.03425-6.59719,9.1289-15.97491,21.31086-6.45227,7.97896-16.08906,20.06341-28.87624,36.2836-19.6532,25.84-44.85434,60.58026-75.65388,104.15354-41.04475,58.15262-61.56864,90.39798-61.56864,96.73609,0,2.92192,1.77182,4.36775,5.31914,4.36775,7.47124,0,20.8334-6.46925,40.09319-19.37412,14.19939-9.61981,26.80837-19.14211,37.82694-28.49966l3.80959,4.92255Z"/>
  <path class="cls-1" d="M437.90146,156.39843c-15.33588,19.40438-30.67176,38.84238-45.98747,58.34763-24.59592,31.94947-36.87538,50.14003-36.87538,54.57503,0,2.26289,2.08468,3.41283,6.27087,3.41283,5.69926,0,17.17511-6.53313,34.3973-19.56914,15.33252-11.42878,26.03838-20.55432,32.12768-27.3867l3.79278,3.41619c-37.62856,33.72146-62.6515,50.56705-75.0621,50.56705-13.05282,0-19.58595-7.28967-19.58595-21.86901,0-10.50748,8.8162-27.9415,26.41497-52.24153,2.92192-3.94073,15.97491-20.3593,39.15845-49.25236h35.34885ZM458.6207,89.11691c4.43147,0,8.32176,1.57696,11.68751,4.66364,3.34895,3.11694,5.04023,6.89291,5.04023,11.32791,0,5.45044-2.18219,10.17797-6.56676,14.24983-4.36775,4.03824-9.27685,6.07585-14.72729,6.07585-11.27747,0-16.90948-4.99316-16.90948-15.00637,0-5.97834,2.08468-11.00176,6.27087-15.1375,4.18618-4.10548,9.24322-6.17336,15.20492-6.17336Z"/>
  <path class="cls-1" d="M453.30123,264.16317c0,7.09465,4.93936,10.63862,14.8248,10.63862,13.56071,0,31.42158-6.0086,53.60329-18.0258,18.86303-10.27884,34.77388-21.17972,47.69557-32.70265l3.42964,4.36439c-41.43798,34.47799-76.60544,51.68337-105.48504,51.68337-22.80359,0-34.21573-9.15916-34.21573-27.5481,0-23.80575,15.58151-46.88859,46.76082-69.18463,29.01074-20.88383,56.00068-31.35769,80.95655-31.35769,10.39299,0,15.59461,4.82504,15.59461,14.44821,0,10.63862-14.19939,23.08284-42.58809,37.26878-19.50189,9.75094-38.9567,17.59877-58.33082,23.54349-3.94073,3.44645-8.50686,9.19279-13.69167,17.30288-5.69926,8.86663-8.55393,15.39977-8.55393,19.56914ZM569.42488,161.55298c0-2.92192-3.10349-4.36775-9.31047-4.36775-8.61782,0-22.49106,8.27485-41.61972,24.88845-13.56054,11.65742-25.92406,23.74187-37.0704,36.2836,17.239-4.3005,34.6562-11.06564,52.27515-20.32568,23.82257-12.67287,35.72544-24.8212,35.72544-36.47862Z"/>
  <path class="cls-1" d="M791.03359,205.81554c-29.51846,0-44.27937-14.44821-44.27937-43.31101,0-6.99378,2.0208-15.66203,6.07603-26.03838,3.92374-9.88544,8.24105-17.76353,12.91814-23.57711-34.9689-8.86663-52.45336-24.95569-52.45336-48.26718,0-21.17972,11.34472-37.76305,34.01735-49.81388,18.50326-9.88208,39.35347-14.80799,62.53718-14.80799,25.59473,0,41.92906,3.48008,49.04052,10.44024l-2.85804,3.05642c-21.67063-4.20299-34.9689-6.27423-39.91162-6.27423-20.91746,0-40.93025,4.79477-60.05573,14.44821-23.20052,11.65742-34.7907,26.86217-34.7907,45.61088,0,21.01497,16.53289,34.14848,49.61549,39.33666,24.95569-25.08683,45.98411-43.01511,63.09197-53.78487,47.38286-29.78409,86.16154-44.65596,116.32222-44.65596,7.2256,0,13.36534,1.5736,18.43583,4.72753,6.07603,3.80959,9.11209,9.06165,9.11209,15.79317,0,16.08906-11.27747,31.72083-33.81896,46.92222-15.97474,10.67224-34.65956,19.53888-56.06775,26.63017-15.20157,5.18817-42.57146,9.75094-82.10649,13.69167-28.51629,30.76927-42.76966,52.04651-42.76966,63.83506,0,13.20076,8.17734,19.76752,24.51186,19.76752,18.2578,0,36.56268-4.73089,54.9348-14.25319,11.52629-5.94135,27.30264-16.57997,47.31898-31.91585,4.6939-3.80959,11.47585-7.97896,20.33912-12.54173l1.90648.35978,1.13313.75654.95156,1.14994-.37659,2.1015c-8.24459,8.99441-15.10724,18.91347-20.62157,29.74711-5.51769,10.837-10.87044,21.64037-16.0588,32.41012-12.54173,24.29666-32.9481,43.01511-61.20567,56.05112-25.08683,11.65742-52.58449,17.50126-82.4829,17.50126-38.89282,0-58.351-10.50748-58.351-31.45856,0-7.7167,3.10349-14.41459,9.32728-20.09367,6.20698-5.68245,13.23102-8.5035,21.07885-8.5035,8.49005,0,12.74348,4.43164,12.74348,13.29827,0,3.41283-1.49627,6.46588-4.46862,9.12554-2.96882,2.65965-6.17336,3.97435-9.603,3.97435-2.39739,0-5.2218-.85405-8.45642-2.56214-3.21781-1.70473-5.53114-2.55878-6.92653-2.55878-4.8284,0-7.22579,2.98581-7.22579,8.93052,0,8.99777,6.84584,15.56452,20.52406,19.76752,9.1289,2.79079,19.63638,4.16937,31.55607,4.16937,18.99417,0,38.00515-6.07585,57.01967-18.22418,14.56235-9.26003,30.40596-23.15009,47.51064-41.63653,13.54691-15.20139,27.0402-30.47002,40.47296-45.8059-34.71,24.33365-63.91576,36.48198-87.60719,36.48198ZM816.497,109.27783c5.96153,0,11.08245-.26227,15.39977-.75654,24.5791-2.92192,47.75945-8.63463,69.56458-17.10786,26.35109-10.27548,45.98429-23.11646,58.90579-38.58012,7.35692-8.7355,11.03202-16.41857,11.03202-23.01895,0-9.88208-7.28631-14.80799-21.86565-14.80799-33.95346,0-80.13595,31.42494-138.55083,94.27146h5.51433Z"/>
  <path class="cls-1" d="M1042.65502,220.26375v5.51433c-1.88967.26227-4.87547.39676-8.93033.39676-6.9637,0-13.23457-2.23599-18.81615-6.66763-10.76975,15.46702-23.18371,28.76529-37.25197,39.92844-17.60195,13.79254-33.88621,20.68545-48.84551,20.68545-15.95792,0-23.93689-9.09528-23.93689-27.34972,0-23.05258,14.18594-46.00428,42.57146-68.79123,27.10744-21.80513,52.52378-32.70601,76.21185-32.70601,4.05841,0,7.636,1.61059,10.73967,4.85866,3.1033,3.22117,4.64664,6.79876,4.64664,10.73949,0,10.90088-6.20698,26.59654-18.61758,47.1206,4.80822,4.56277,10.3898,6.86265,16.7281,6.86265,1.77516,0,3.61103-.19838,5.50069-.59178ZM1012.24889,208.11206c0-8.63463,1.83941-15.59479,5.51769-20.91409,1.52653-2.26625,4.93936-5.58158,10.25867-9.88544,3.80959-3.05305,5.69944-6.13973,5.69944-9.32392,0-5.68245-2.59595-8.53712-7.78413-8.53712-11.78856,0-31.99655,14.93912-60.6307,44.85434-28.63415,29.91186-42.94768,50.7957-42.94768,62.71539,0,5.45044,2.70655,8.17734,8.12673,8.17734,11.60699,0,26.56292-7.78394,44.85098-23.37873,13.2512-11.26402,25.54747-24.00414,36.90901-38.19008v-5.51769Z"/>
  <path class="cls-1" d="M1137.89485,156.03529c-54.99869,68.13557-82.49971,106.22477-82.49971,114.20373,0,2.16874,1.39558,3.25144,4.18637,3.25144l2.08468-.19838c7.60219-.13113,22.49442-8.93052,44.67259-26.46541,12.67623-9.88208,26.48222-24.4278,41.44151-43.57327,21.52269-27.5481,34.06442-43.27738,37.62856-47.21811h34.9689c-15.46365,19.63638-30.91386,39.27277-46.38087,58.90915-24.57574,31.94947-36.87202,50.43592-36.87202,55.49296,0,2.03425,1.83587,3.05305,5.51433,3.05305,6.46925,0,18.61758-6.79876,36.49879-20.32568,13.92031-10.54111,25.39636-20.22817,34.39393-29.09144l2.65965,4.76115c-19.63638,17.33651-31.93247,27.9415-36.87519,31.71747-17.35351,13.06963-31.29063,19.56914-41.81493,19.56914-12.65942,0-18.99753-6.43562-18.99753-19.37076,0-6.82902,1.00199-13.36552,3.0396-19.5725-8.75231,8.30848-18.63439,16.25382-29.65296,23.80912-14.82461,10.11072-25.78957,15.13414-32.88422,15.13414-14.05481,0-21.09566-6.89291-21.09566-20.74934,0-12.08445,8.48668-30.01273,25.48023-53.78487,13.03619-16.51944,26.08882-33.03553,39.14164-49.55161h35.3623Z"/>
  <path class="cls-1" d="M1285.57458,156.03529h35.54387l-65.1464,86.5245c17.10786-13.9573,42.37626-35.23453,75.80182-63.89895,4.435-10.76975,9.37455-18.02916,14.8248-21.77151,5.43699-3.74235,13.99092-5.6152,25.64498-5.6152,4.94272,0,7.40736,1.57696,7.40736,4.76115-.1345.26227-.37995.88767-.75654,1.90648-4.69727,4.66028-9.32728,9.35754-13.87305,14.05145-5.58158,6.33811-8.37236,12.05082-8.37236,17.10786,0,1.64085,1.7079,3.1203,5.13755,4.36775v1.14994c0,.49091-.26207,1.37858-.75654,2.65965l-3.23462.75318c-3.80623-.26227-7.5822-.52453-11.3111-.85069-3.74235-.32951-7.3233-1.87285-10.73613-4.66364l-3.23462-5.71271c-45.60752,36.64338-80.2032,66.45773-103.77695,89.54057h-34.3973l91.23521-120.30984Z"/>
  <path class="cls-1" d="M1410.23536,155.64189h33.83914c-11.16632,13.4294-17.17511,20.71908-18.05923,21.86901-6.60058,8.37236-11.856,16.08906-15.77991,23.18035,10.63862-10.50748,22.62555-20.52069,35.92382-30.043,17.72991-12.6426,31.15931-18.98072,40.28821-18.98072,11.41197,0,17.10786,6.634,17.10786,19.93228,0,10.14771-3.23462,20.55432-9.68686,31.19294,9.11209-11.35817,20.83656-22.22879,35.15028-32.57152,17.10786-12.38034,31.22656-18.55369,42.39307-18.55369,11.90288,0,17.86104,7.55194,17.86104,22.68944,0,10.14771-5.25206,21.96989-15.77636,35.46318-2.52832,3.28506-12.47785,14.48183-29.83097,33.52644-11.41217,12.34671-17.75028,21.60675-19.01118,27.84399.62204,1.90648,2.59241,2.85804,5.89092,2.85804,6.20698,0,18.93028-6.89627,38.20689-20.71908,15.95792-11.65742,27.99193-21.40837,36.10203-29.2562l3.80959,4.76115c-38.13964,34.44437-66.01726,51.68337-83.63284,51.68337-12.80736,0-19.19235-7.25941-19.19235-21.73788,0-10.40997,5.31911-22.29604,15.95773-35.66156,4.18618-5.31931,14.44821-16.3177,30.79953-32.96492,11.90288-12.21558,18.68483-21.11584,20.32568-26.69741-.50752-3.67846-1.95335-5.51433-4.36775-5.51433h-.75318c-21.54286,5.71271-45.23429,22.29268-71.09111,49.74663-19.2598,22.88446-38.51603,45.77228-57.77603,68.65674h-36.10203c56.49495-72.46633,84.76597-110.22938,84.76597-113.28244,0-3.41619-1.28107-5.12093-3.80959-5.12093-15.84341,0-39.4039,16.02181-70.69435,48.10242-23.31484,24.00414-42.83354,47.41649-58.54601,70.30095h-36.68036l92.36834-120.70324Z"/>
  <path class="cls-1" d="M1639.64482,264.16317c0,7.09465,4.93936,10.63862,14.8248,10.63862,13.56054,0,31.42514-6.0086,53.60329-18.0258,18.8664-10.27884,34.77388-21.17972,47.69557-32.70265l3.42964,4.36439c-41.43815,34.47799-76.60544,51.68337-105.48504,51.68337-22.80376,0-34.21236-9.15916-34.21236-27.5481,0-23.80575,15.57797-46.88859,46.75766-69.18463,29.01054-20.88383,56.00048-31.35769,80.95617-31.35769,10.39316,0,15.59815,4.82504,15.59815,14.44821,0,10.63862-14.20275,23.08284-42.58789,37.26878-19.50545,9.75094-38.96027,17.59877-58.33439,23.54349-3.94073,3.44645-8.5035,9.19279-13.69167,17.30288-5.69926,8.86663-8.55393,15.39977-8.55393,19.56914ZM1755.76848,161.55298c0-2.92192-3.10349-4.36775-9.31047-4.36775-8.61782,0-22.49106,8.27485-41.61972,24.88845-13.56054,11.65742-25.92406,23.74187-37.0704,36.2836,17.239-4.3005,34.65956-11.06564,52.27515-20.32568,23.82257-12.67287,35.72544-24.8212,35.72544-36.47862Z"/>
  <path class="cls-1" d="M1806.69531,138.17425l2.65965-6.27423h27.18832l48.27074-62.71539h35.49323l-48.26717,62.71539h36.90901l-3.07323,5.87747h-38.61353l-27.92826,37.2049c-12.78719,16.25382-25.57774,32.47401-38.35147,48.6942-20.14411,26.49903-30.07662,41.96605-29.83116,46.39768l2.1015,1.50972c1.00199.26563,2.77398.39676,5.31931.39676,4.81159,0,16.22019-6.86265,34.21573-20.55768,15.20159-11.52293,26.28384-20.7527,33.24736-27.74648l3.42964,5.15791c-19.25623,16.44883-31.30726,26.46541-36.11884,30.00937-17.8644,13.4294-30.9811,20.16092-39.33665,20.16092-11.91969,0-17.8644-6.33475-17.8644-19.01098,0-14.31708,10.06365-35.29842,30.21112-62.91377,15.08706-19.63638,30.15732-39.26941,45.24774-58.90579h-24.90862Z"/>
</svg>