<?xml version="1.0" encoding="UTF-8"?>
<svg id="Layer_1" data-name="Layer 1" xmlns="http://www.w3.org/2000/svg" viewBox="0 0 251.94 251.94">
  <defs>
    <style>
      .cls-1 {
        fill: #ffffff;
      }

      .cls-2 {
        stroke-miterlimit: 10;
        stroke-width: 2.5px;
      }

      .cls-2, .cls-3 {
        fill: none;
        stroke: #ffffff;
        stroke-linecap: round;
      }

      .cls-3 {
        stroke-linejoin: round;
        stroke-width: 2px;
      }
    </style>
  </defs>
  <g transform="translate(125.97, 125.97) scale(0.4) translate(-251.94, -251.94)">
    <g>
      <path class="cls-1" d="M235.44,380.16c-19.63,5.87-38.98,7.09-55.85,7.09s-31.28-4.48-42.07-13.4c-11.42-9.55-17.13-22.83-17.13-39.83,0-23.93,13.41-52.16,40.21-84.68l5.62-6.89c28.68-30.39,60.09-56.82,94.24-79.28,43.33-28.53,80.7-42.81,112.12-42.81,19.24,0,28.86,6.77,28.86,20.3,0,17.14-14.33,36.14-43,57-37.23,26.94-89.96,44.7-158.19,53.27-37.48,39.72-56.21,72.01-56.21,96.84,0,22.48,13.4,33.71,40.19,33.71,13.02,0,28.78-1.93,44.52-6.37M396.05,143.08c0-11.54-6.82-17.31-20.48-17.31-24.08,0-55.22,14.65-93.43,43.92-31.9,24.2-57.71,48.96-77.42,74.27,62.16-6.69,111.48-23.2,147.96-49.51,28.91-20.84,43.37-37.96,43.37-51.36Z"/>
      <path class="cls-1" d="M284.21,108.51c-4.23.97-8.13-.39-8.71-3.03-.63-2.65,2.32-5.56,6.53-6.52,4.21-.96,8.1.39,8.71,3.03.62,2.66-2.32,5.57-6.53,6.53Z"/>
    </g>
    <path class="cls-3" d="M183.48,249.5s-62.03,3.83-62.03-32.61,44.76-70.97,139.39-105.19"/>
    <path class="cls-1" d="M328.93,384.18c-35.76-.71-74.88,3.63-108.44-11.17-16.8-7.22-31.65-20.74-36.93-38.66-5.61-17.64-1.21-37.92,11.19-51.66,18.84-21.65,52.69-24.37,74.76-6.03,18.03,14.42,25.33,41.26,15.47,62.41-9.63,20.37-33.72,32.7-54.32,39.28-.18.05-.27-.22-.1-.29,16.78-6.65,34.22-14.02,46.3-27.97,19-21.1,13.81-55.57-7.84-72.81-21.74-18.06-55.1-15.39-73.65,5.95-12.21,13.54-16.54,33.51-11.01,50.88,5.22,17.69,19.86,31,36.48,38.14,25.18,11.16,53.6,11.31,80.68,11.06,0,0,27.42.01,27.42.01.24,0,.43.19.43.43,0,.24-.19.43-.43.43h0Z"/>
    <path class="cls-1" d="M352.12,383.79c-2.47.07-4.96.03-7.43-.03-.14-.03-.19.09-.24-.19-.03-.12.01-.5.12-.44,1.22-.02,2.5-.06,3.72-.06,1.28-.01,2.56,0,3.84.03.43,0,.44.68,0,.69h0Z"/>
    <path class="cls-1" d="M344.13,383.11c2.41-.07,4.83-.02,7.24.03.1-.06.15.31.11.43-.05.28-.09.16-.23.19-2.37.05-4.76.1-7.13.03-.42,0-.43-.67,0-.67h0Z"/>
    <path class="cls-1" d="M368.11,383.79c-2.47.07-4.96.03-7.43-.03-.14-.03-.19.09-.24-.19-.03-.12.01-.5.12-.44,1.22-.02,2.5-.06,3.72-.06,1.28-.01,2.56,0,3.84.03.43,0,.44.68,0,.69h0Z"/>
    <path class="cls-1" d="M360.11,383.11c2.41-.07,4.83-.02,7.24.03.1-.06.15.31.11.43-.05.28-.09.16-.23.19-2.37.05-4.76.1-7.13.03-.42,0-.43-.67,0-.67h0Z"/>
    <path class="cls-2" d="M503.38,251.94c0,138.88-112.58,251.44-251.44,251.44S.52,390.8.52,251.94,113.08.5,251.94.5s251.44,112.56,251.44,251.43Z"/>
  </g>
</svg>